<svg width="188" height="150" viewBox="0 0 188 150" fill="none" xmlns="http://www.w3.org/2000/svg">
<path d="M131.133 65.625C131.133 61.9453 129.73 58.2627 126.924 55.4414L75.6262 4.20117C73.0599 1.40215 69.3644 0 65.4342 0C62.0026 0 58.3364 1.40215 55.4915 4.2041L4.20863 55.4297C1.40267 58.2715 -0.000488281 61.9336 -0.000488281 65.3613C-0.000488281 69.041 1.40293 72.7354 4.20831 75.5566L55.5058 126.797C58.3288 129.598 62.014 131.001 65.6978 131.001C69.3816 131.001 73.0684 129.6 75.8899 126.797L127.187 75.5566C129.989 72.9785 131.133 69.3164 131.133 65.625ZM28.1563 72.6562C24.2701 72.6562 21.3811 69.5068 21.3811 65.8887C21.3811 62.2705 24.5341 59.1211 28.1563 59.1211C31.7785 59.1211 35.1954 61.7578 35.1954 65.625C35.1954 69.4922 32.0571 72.6562 28.1563 72.6562ZM65.6982 110.156C61.812 110.156 58.923 107.007 58.923 103.389C58.923 99.7705 62.076 96.6211 65.6982 96.6211C69.3204 96.6211 72.4733 99.7705 72.4733 103.389C72.4733 107.007 69.599 110.156 65.6982 110.156ZM65.6982 72.6562C61.812 72.6562 58.923 69.5068 58.923 65.8887C58.923 62.2705 62.076 59.1211 65.6982 59.1211C69.3204 59.1211 72.7373 61.7578 72.7373 65.625C72.7373 69.4922 69.599 72.6562 65.6982 72.6562ZM65.6982 35.1562C61.812 35.1562 58.923 32.0068 58.923 28.3887C58.923 24.7705 62.076 21.6211 65.6982 21.6211C69.3204 21.6211 72.4733 24.7705 72.4733 28.3887C72.4733 32.0068 69.599 35.1562 65.6982 35.1562ZM103.24 72.6562C99.3539 72.6562 96.4649 69.5068 96.4649 65.8887C96.4649 62.2705 99.6179 59.1211 103.24 59.1211C106.862 59.1211 110.015 62.2705 110.015 65.8887C110.015 69.5068 107.141 72.6562 103.24 72.6562ZM173.367 56.25H138.553C139.849 59.2588 140.49 62.4756 140.49 65.6924C140.49 71.7568 138.183 77.8154 133.559 82.4326L93.6123 122.335V135.92C93.8546 143.701 100.16 150 107.933 150H173.367C181.139 150 187.181 143.701 187.181 136.201V70.3125C187.445 62.5488 181.403 56.25 173.367 56.25ZM140.518 110.156C136.632 110.156 133.743 107.007 133.743 103.389C133.743 99.7705 136.896 96.6211 140.518 96.6211C144.14 96.6211 147.293 99.7705 147.293 103.389C147.293 107.007 144.653 110.156 140.518 110.156Z" fill="white"/>
</svg>
