<svg width="150" height="150" viewBox="0 0 150 150" fill="none" xmlns="http://www.w3.org/2000/svg">
<path d="M75 37.5C69.8145 37.5 65.625 41.7188 65.625 46.875C65.625 52.0312 69.8145 56.25 75 56.25C80.1855 56.25 84.3662 52.0371 84.3662 46.875C84.3662 41.7129 80.1855 37.5 75 37.5ZM75 0C33.5742 0 0 33.5742 0 75C0 116.426 33.5742 150 75 150C116.426 150 150 116.426 150 75C150 33.5742 116.426 0 75 0ZM75 112.5C69.8203 112.5 65.6338 108.287 65.6338 103.125C65.6338 97.9629 69.8145 93.75 75 93.75C80.1855 93.75 84.3662 97.9629 84.3662 103.125C84.3662 108.287 80.1855 112.5 75 112.5ZM75 75C59.4609 75 46.8662 87.5977 46.8662 103.125C46.8662 118.652 59.209 131.25 75 131.25C43.916 131.25 18.7207 106.055 18.7207 75C18.7207 43.9453 43.916 18.75 75 18.75C90.5391 18.75 103.134 31.3477 103.134 46.875C103.134 62.4023 90.5273 75 75 75Z" fill="white"/>
</svg>
