<svg width="115" height="115" viewBox="0 0 115 115" fill="none" xmlns="http://www.w3.org/2000/svg">
<path d="M114.094 8.71875V43.875C114.094 48.1938 110.6 51.6875 106.281 51.6875H71.125C66.8062 51.6875 63.3125 48.1938 63.3125 43.875C63.3125 39.5562 66.8062 36.0625 71.125 36.0625H86.6011C79.2842 26.3701 67.7412 20.4912 55.4487 20.4912C33.9424 20.4912 16.4375 37.9912 16.4375 59.5C16.4375 81.0088 33.9399 98.5137 55.4512 98.5137C63.9668 98.5137 72.0601 95.8208 78.8594 90.7158C82.3311 88.145 87.2139 88.8237 89.7993 92.2722C92.3848 95.7292 91.6914 100.627 88.2429 103.212C78.7141 110.361 67.4031 114.164 55.4792 114.164C25.3486 114.163 0.8125 89.627 0.8125 59.5C0.8125 29.373 25.3486 4.83691 55.4756 4.83691C72.3579 4.83691 88.1904 12.7642 98.4688 25.8623V8.71875C98.4688 4.3999 101.962 0.90625 106.281 0.90625C110.6 0.90625 114.094 4.3999 114.094 8.71875Z" fill="white"/>
</svg>
