<svg width="141" height="125" viewBox="0 0 141 125" fill="none" xmlns="http://www.w3.org/2000/svg">
<path d="M140.809 62.3779C140.809 66.7725 137.141 70.2148 132.984 70.2148H125.158L125.33 109.302C125.33 109.985 125.281 110.62 125.207 111.279V115.234C125.207 120.63 120.83 125 115.425 125H111.513C111.244 125 110.975 124.78 110.706 124.976C110.363 124.78 110.021 125 109.679 125H95.8618C90.4574 125 86.08 120.63 86.08 115.234V93.75C86.08 89.4287 82.583 85.9375 78.2546 85.9375H62.6037C58.2752 85.9375 54.7782 89.4287 54.7782 93.75V115.234C54.7782 120.63 50.4008 125 44.9964 125H31.3263C30.9595 125 30.5926 124.976 30.2258 124.951C29.9324 124.976 29.6389 125 29.3455 125H25.4327C20.0307 125 15.6509 120.63 15.6509 115.234V87.8906C15.6509 87.6709 15.6582 87.4268 15.6729 87.207V70.2148H7.83768C3.42853 70.2148 0 66.7725 0 62.3779C0 60.1807 0.734615 58.2275 2.4479 56.5186L65.1469 1.95703C66.8587 0.244629 68.8151 0 70.5269 0C72.2387 0 74.1951 0.489258 75.6868 1.7124L138.119 56.5186C140.076 58.2275 141.078 60.1807 140.809 62.3779Z" fill="white"/>
</svg>
