<svg width="141" height="125" viewBox="0 0 141 125" fill="none" xmlns="http://www.w3.org/2000/svg">
<path d="M139.38 20.1123C138.747 17.478 136.384 15.625 133.679 15.625H109.122C109.181 12.5854 109.148 9.83887 109.084 7.56348C108.975 3.32764 105.54 0 101.301 0H39.0296C34.7904 0 31.3552 3.32764 31.2334 7.56348C30.9654 9.83887 31.136 12.5854 31.2091 15.625H6.64154C3.93726 15.625 1.59282 17.478 0.953291 20.1123C0.755464 20.9424 -3.82719 40.8203 9.03154 60.0342C18.153 73.6621 33.5406 83.2349 54.7119 88.6963C59.2678 89.8694 62.3643 94.082 62.3643 98.7964C62.3692 104.614 57.6184 109.375 51.7957 109.375H50.675C44.2164 109.375 38.9833 114.622 38.9833 121.094C38.9833 123.251 40.7284 125 42.6621 125H97.0156C99.1683 125 100.694 123.251 100.694 121.094C100.694 114.622 95.4613 109.375 89.0027 109.375H87.8713C82.0583 109.375 77.3075 104.614 77.3075 98.7915C77.3075 94.0771 80.4041 89.8633 84.9599 88.6914C106.146 83.2373 121.529 73.6646 130.64 60.0293C144.155 40.8203 139.575 20.9424 139.38 20.1123ZM18.8595 53.6621C12.0525 43.6035 11.4532 33.1299 11.787 27.3438H31.3723C32.6779 41.8994 36.3301 59.3506 45.4224 73.5107C33.4748 68.75 24.5824 62.1094 18.8595 53.6621ZM121.474 53.6621C115.763 62.1094 106.87 68.7378 94.918 73.4912C104.005 59.3506 107.66 41.8945 108.951 27.3438H128.536C128.661 33.1299 128.271 43.6279 121.474 53.6621Z" fill="white"/>
</svg>
