<svg width="70" height="60" viewBox="0 0 70 60" fill="none" xmlns="http://www.w3.org/2000/svg">
<path d="M69.8596 30C69.8596 32.7656 67.7658 35 65.0002 35H17.0783L33.5471 51.4688C35.5002 53.4219 35.5002 56.5859 33.5471 58.5391C32.5627 59.5156 31.2814 60 30.0002 60C28.7189 60 27.4408 59.5117 26.4658 58.5352L1.46582 33.5352C-0.487305 31.582 -0.487305 28.418 1.46582 26.4648L26.4658 1.46484C28.4189 -0.488281 31.583 -0.488281 33.5361 1.46484C35.4893 3.41797 35.4893 6.58203 33.5361 8.53516L17.0783 25H65.0002C67.7658 25 69.8596 27.2344 69.8596 30Z" fill="white"/>
</svg>
