<svg width="70" height="61" viewBox="0 0 70 61" fill="none" xmlns="http://www.w3.org/2000/svg">
<path d="M0 20.4045V19.6088C0 10.0203 6.90703 1.84194 16.3242 0.267172C22.4355 -0.773986 28.9023 1.26443 33.3594 5.74319L35 7.38655L36.5176 5.74319C41.0977 1.26443 47.4414 -0.773986 53.6758 0.267172C63.0957 1.84194 70 10.0203 70 19.6088V20.4045C70 26.0972 67.6484 31.5431 63.4922 35.4251L38.7871 58.5665C37.7617 59.5267 36.4082 60.0617 35 60.0617C33.5918 60.0617 32.2383 59.5267 31.2129 58.5665L6.50645 35.4251C2.35566 31.5431 4.10156e-05 26.0972 4.10156e-05 20.4045H0Z" fill="white"/>
</svg>
