<svg width="70" height="70" viewBox="0 0 70 70" fill="none" xmlns="http://www.w3.org/2000/svg">
<path d="M31.7188 16.4062C31.7188 14.5879 33.1816 13.125 35 13.125C36.8184 13.125 38.2812 14.5879 38.2812 16.4062V33.25L49.9434 41.0156C51.4473 42.0273 51.8574 44.0645 50.7363 45.5684C49.8477 47.0723 47.8105 47.4824 46.3066 46.3613L33.1816 37.6113C32.2656 37.1191 31.7188 36.0938 31.7188 34.877V16.4062ZM35 0C54.332 0 70 15.668 70 35C70 54.332 54.332 70 35 70C15.668 70 0 54.332 0 35C0 15.668 15.668 0 35 0ZM6.5625 35C6.5625 50.709 19.291 63.4375 35 63.4375C50.709 63.4375 63.4375 50.709 63.4375 35C63.4375 19.291 50.709 6.5625 35 6.5625C19.291 6.5625 6.5625 19.291 6.5625 35Z" fill="white"/>
</svg>
