<svg width="169" height="150" viewBox="0 0 169 150" fill="none" xmlns="http://www.w3.org/2000/svg">
<path d="M168.691 74.8535C168.691 80.127 164.297 84.2578 159.316 84.2578H149.941L150.146 131.162C150.146 131.982 150.088 132.744 150 133.535V138.281C150 144.756 144.756 150 138.281 150H133.594C133.271 150 132.949 149.736 132.627 149.971C132.217 149.736 131.807 150 131.396 150H114.844C108.369 150 103.125 144.756 103.125 138.281V112.5C103.125 107.314 98.9355 103.125 93.75 103.125H75C69.8145 103.125 65.625 107.314 65.625 112.5V138.281C65.625 144.756 60.3809 150 53.9062 150H37.5293C37.0898 150 36.6504 149.971 36.2109 149.941C35.8594 149.971 35.5078 150 35.1562 150H30.4688C23.9971 150 18.75 144.756 18.75 138.281V105.469C18.75 105.205 18.7588 104.912 18.7764 104.648V84.2578H9.38965C4.10742 84.2578 0 80.127 0 74.8535C0 72.2168 0.880078 69.873 2.93262 67.8223L78.0469 2.34844C80.0977 0.293555 82.4414 0 84.4922 0C86.543 0 88.8867 0.587109 90.6738 2.05488L165.469 67.8223C167.812 69.873 169.014 72.2168 168.691 74.8535Z" fill="white"/>
</svg>
