<svg width="137" height="137" viewBox="0 0 137 137" fill="none" xmlns="http://www.w3.org/2000/svg">
<path d="M136.625 71C136.625 107.152 107.182 136.596 71.0293 136.596C56.7148 136.596 43.1416 132.031 31.7129 123.453C27.5703 120.351 26.7324 114.471 29.8405 110.325C32.9489 106.197 38.8317 105.354 42.9655 108.458C51.1218 114.583 60.8366 117.815 71.0583 117.815C96.8691 117.816 117.875 96.8105 117.875 71C117.875 45.1895 96.8779 24.1836 71.0586 24.1836C56.3223 24.1895 42.4648 31.2441 33.6758 42.875H52.25C57.4268 42.875 61.625 47.0674 61.625 52.25C61.625 57.4326 57.4355 61.625 52.25 61.625H10.0625C4.88574 61.625 0.6875 57.4326 0.6875 52.25V10.0625C0.6875 4.87988 4.88574 0.6875 10.0625 0.6875C15.2393 0.6875 19.4375 4.87988 19.4375 10.0625V30.6377C31.7715 14.9199 50.5215 5.40723 71.0293 5.40723C107.182 5.40723 136.625 34.8477 136.625 71Z" fill="white"/>
</svg>
