<svg width="95" height="80" viewBox="0 0 95 80" fill="none" xmlns="http://www.w3.org/2000/svg">
<path d="M77.1875 0H65.3125C62.0339 0 59.375 2.55893 59.375 5.71429C59.375 8.86964 62.0339 11.4286 65.3125 11.4286H77.1875C80.4661 11.4286 83.125 13.9875 83.125 17.1429V62.8571C83.125 66.0125 80.4661 68.5714 77.1875 68.5714H65.3125C62.0339 68.5714 59.375 71.1304 59.375 74.2857C59.375 77.4411 62.0339 80 65.3125 80H77.1875C87.0252 80 95 72.325 95 62.8571V17.1429C95 7.675 87.0215 0 77.1875 0ZM63.5684 35.9643L39.8184 13.1071C37.4972 10.8732 33.7398 10.8768 31.4224 13.1071C29.103 15.3393 29.103 18.9554 31.4224 21.1875L45.0508 34.2857H5.9375C2.65518 34.2857 0 36.8393 0 40C0 43.1607 2.65518 45.7143 5.9375 45.7143H45.0508L31.4354 58.8179C29.116 61.05 29.116 64.6661 31.4354 66.8982C33.7547 69.1304 37.512 69.1304 39.8313 66.8982L63.5813 44.0411C65.8877 41.8036 65.8877 38.1964 63.5684 35.9643Z" fill="white"/>
</svg>
