<svg width="110" height="80" viewBox="0 0 110 80" fill="none" xmlns="http://www.w3.org/2000/svg">
<path d="M38.5 40C50.6516 40 60.5 31.0453 60.5 20C60.5 8.95469 50.6516 0 38.5 0C26.3484 0 16.5 8.95469 16.5 20C16.5 31.0453 26.3484 40 38.5 40ZM47.2141 47.5H29.7859C13.3392 47.5 0 59.625 0 74.5781C0 77.5781 2.6675 80 5.95719 80H71.0462C74.3359 80 77 77.5781 77 74.5781C77 59.625 63.6625 47.5 47.2141 47.5ZM105.875 31.25H97.625V23.75C97.625 21.6875 95.7859 20 93.5 20C91.2141 20 89.375 21.6797 89.375 23.75V31.25H81.125C78.8562 31.25 77 32.9375 77 35C77 37.0625 78.8477 38.75 81.125 38.75H89.375V46.25C89.375 48.3281 91.2312 50 93.5 50C95.7688 50 97.625 48.3203 97.625 46.25V38.75H105.875C108.161 38.75 110 37.0781 110 35C110 32.9219 108.161 31.25 105.875 31.25Z" fill="white"/>
</svg>
