<svg width="60" height="85" viewBox="0 0 60 85" fill="none" xmlns="http://www.w3.org/2000/svg">
<path d="M16.6104 75.4209C16.6104 76.4663 16.9118 77.4861 17.4876 78.3577L20.3331 82.6227C21.2047 83.93 23.1836 84.9934 24.7557 84.9934H34.9939C36.5608 84.9934 38.54 83.9307 39.4116 82.6227L42.2471 78.3594C42.7349 77.6226 43.135 76.3058 43.135 75.4209L43.1562 68.9131H16.5938L16.6104 75.4209ZM29.875 0C12.9447 0.0531748 0.65625 13.7743 0.65625 29.0693C0.65625 36.4371 3.38555 43.1541 7.88789 48.2939C10.6321 51.4217 14.917 57.961 16.5572 63.4761C16.5624 63.5176 16.5728 63.5618 16.578 63.606H43.1737C43.1789 63.5619 43.1893 63.5202 43.1944 63.4761C44.8338 57.961 49.1195 51.4217 51.8638 48.2939C56.3711 43.2969 59.0938 36.5898 59.0938 29.0693C59.0938 13.082 46.0117 0.000647461 29.875 0ZM45.8789 43.1807C43.2791 46.144 40.0617 50.8672 37.7358 55.7796H22.0291C19.7032 50.8672 16.4858 46.144 13.8877 43.1823C10.491 39.3125 8.625 34.2158 8.625 29.0693C8.625 18.8096 16.6104 8.01025 29.7256 7.96875C41.5957 7.96875 51.125 17.4981 51.125 29.0693C51.125 34.2158 49.2656 39.3125 45.8789 43.1807ZM27.2188 13.2813C19.8975 13.2813 13.9375 19.2412 13.9375 26.5625C13.9375 28.0307 15.1255 29.2188 16.5938 29.2188C18.062 29.2188 19.25 28.0234 19.25 26.5625C19.25 22.1681 22.8243 18.5938 27.2188 18.5938C28.687 18.5938 29.875 17.4071 29.875 15.9392C29.875 14.4713 28.6797 13.2813 27.2188 13.2813Z" fill="white"/>
</svg>
