<svg width="100" height="85" viewBox="0 0 100 85" fill="none" xmlns="http://www.w3.org/2000/svg">
<path d="M0 28.8766V27.7506C0 14.1809 9.86719 2.60673 23.3203 0.378104C32.0508 -1.09535 41.2891 1.78944 47.6562 8.12783L50 10.4535L52.168 8.12783C58.7109 1.78944 67.7734 -1.09535 76.6797 0.378104C90.1367 2.60673 100 14.1809 100 27.7506V28.8766C100 36.9331 96.6406 44.6401 90.7031 50.134L55.4102 82.884C53.9453 84.2429 52.0117 85 50 85C47.9883 85 46.0547 84.2429 44.5898 82.884L9.29492 50.134C3.36523 44.6401 5.85938e-05 36.9331 5.85938e-05 28.8766H0Z" fill="white"/>
</svg>
