<svg width="50" height="43" viewBox="0 0 50 43" fill="none" xmlns="http://www.w3.org/2000/svg">
<path d="M0 14.6082V14.0386C0 7.17384 4.93359 1.3187 11.6602 0.191276C16.0254 -0.55412 20.6445 0.905246 23.8281 4.11173L25 5.28825L26.084 4.11173C29.3555 0.905246 33.8867 -0.55412 38.3398 0.191276C45.0684 1.3187 50 7.17384 50 14.0386V14.6082C50 18.6838 48.3203 22.5826 45.3516 25.3619L27.7051 41.9295C26.9727 42.617 26.0059 43 25 43C23.9941 43 23.0273 42.617 22.2949 41.9295L4.64746 25.3619C1.68262 22.5826 2.92969e-05 18.6838 2.92969e-05 14.6082H0Z" fill="#D14343"/>
</svg>
